PathFileType	4	(X/Y/Z)	/Users/visionmauri/2_5_3_f_1_Sports2D/2_5_3_f_1_Sports2D_px_person00.trc
DataRate	CameraRate	NumFrames	NumMarkers	Units	OrigDataRate	OrigDataStartFrame	OrigNumFrames
30.0	30.0	6	22	m	30.0	42	341
Frame#	Time	Hip			RHip			RKnee			RAnkle			RBigToe			RSmallToe			RHeel			LHip			LKnee			LAnkle			LBigToe			LSmallToe			LHeel			Neck			Head			Nose			RShoulder			RElbow			RWrist			LShoulder			LElbow			LWrist			
		X1	Y1	Z1	X2	Y2	Z2	X3	Y3	Z3	X4	Y4	Z4	X5	Y5	Z5	X6	Y6	Z6	X7	Y7	Z7	X8	Y8	Z8	X9	Y9	Z9	X10	Y10	Z10	X11	Y11	Z11	X12	Y12	Z12	X13	Y13	Z13	X14	Y14	Z14	X15	Y15	Z15	X16	Y16	Z16	X17	Y17	Z17	X18	Y18	Z18	X19	Y19	Z19	X20	Y20	Z20	X21	Y21	Z21	X22	Y22	Z22
42	1.4041176470588235	537.1341262509603	842.1684720364887	0.0	591.768642032835	853.0485381229179	0.0	600.6086197349412	1090.3482238503425	0.0	583.4212856332686	1326.7705373431802	0.0	604.2593307275013	1346.8334573225895	0.0	628.1603018807955	1365.8507610951822	0.0	571.9457215765484	1367.6876570116274	0.0	487.3639650503047	852.767790741524	0.0	494.17655327320364	995.3846149062119	0.0	508.04146697273967	1068.2794405637992	0.0	507.8461389908614	1169.7846184465525	0.0	484.4559502553577	1156.4348317696533	0.0	507.9613914385201	1142.9032821933401	0.0	527.3832432537685	547.360780498422	0.0	513.92258491057	437.17527779101437	0.0	526.6108124832862	503.99730463517665	0.0	629.185564904039	585.5508931291653	0.0	674.1273848231696	737.4285406724407	0.0	705.6622032273893	829.7409978163772	0.0	433.64465885225013	590.4518820824584	0.0	371.5686497218708	720.8705418136785	0.0	350.06829266680967	834.7470067534535	0.0
43	1.437549019607843	535.9653203700902	842.2002725270378	0.0	590.6605798010229	850.2352227944654	0.0	605.5294987021707	1085.9394528760738	0.0	583.599972506057	1311.388003385703	0.0	606.4040247916685	1351.0622989592678	0.0	627.9073571949559	1365.9376937498523	0.0	571.081314601367	1353.4337629365082	0.0	487.1210882185986	850.9982421812011	0.0	494.920717832626	999.739938132802	0.0	507.3205305369829	1061.6889394011077	0.0	504.61673479103735	1187.506184461036	0.0	483.43806193359694	1154.4558254682674	0.0	505.7743196962495	1155.606940433374	0.0	525.2552480588588	549.303628250974	0.0	511.3816652398568	439.07729251526854	0.0	521.9386856328698	506.17556104222484	0.0	626.6806272711533	587.3356612445568	0.0	674.467743747229	733.8142507286109	0.0	705.2558149145697	829.0169589608353	0.0	432.32983027533135	591.9226814330973	0.0	372.3327332889919	718.9554425579973	0.0	350.64248036582694	835.2098934479637	0.0
44	1.4709803921568627	534.8059805774974	841.1682973851933	0.0	588.2015121249367	849.4165939097179	0.0	610.7668591492134	1080.633934119352	0.0	583.8728415081124	1291.7458578678402	0.0	608.6489035709512	1358.4182645214985	0.0	626.6175653380911	1366.5450166771316	0.0	567.7242188485095	1334.0666071883622	0.0	486.3240903921402	850.8063972430851	0.0	495.97575735540795	1007.7613272113932	0.0	507.5344084030377	1075.8863407091806	0.0	502.8894338394953	1214.039021838838	0.0	484.46021640053345	1184.7500341944606	0.0	503.6714150588887	1196.4487117794756	0.0	523.1134032238608	551.0220936736329	0.0	508.91449654131844	440.9007466931554	0.0	518.3341325685514	508.4974938800554	0.0	623.4246017387607	587.4248243560594	0.0	674.1023480577078	730.1986021985912	0.0	704.6690902049137	827.6730492332174	0.0	431.8326323543951	592.3801354506932	0.0	372.9875879423574	716.8724290060492	0.0	350.8314127943487	835.0738702905447	0.0
45	1.5044117647058823	533.718822455563	840.2448341864526	0.0	585.3514674659449	848.9032654999036	0.0	615.5626711587639	1074.015649137144	0.0	584.0944435436694	1271.5230408643317	0.0	609.6827555590556	1361.1295261324099	0.0	624.9830473269968	1362.4421259019198	0.0	563.2310028401339	1311.0769675455044	0.0	485.6877510628209	850.785116983374	0.0	495.9992500952578	1018.8201018291142	0.0	509.5125128026631	1118.7917787190638	0.0	503.7383413795305	1230.0898393426774	0.0	486.41598868585595	1235.6960453208237	0.0	502.598411518146	1252.854012079274	0.0	521.2413773882132	552.9983952414636	0.0	507.0019405093147	442.6208732993746	0.0	516.7935241754413	510.1023942467544	0.0	619.9291424349528	586.7230204280547	0.0	673.3956010844231	727.844797033793	0.0	703.8403388172052	825.5390890251165	0.0	431.07709734086376	592.8913110257536	0.0	373.42315118036186	715.8369266668979	0.0	350.86073647841135	833.1676992106081	0.0
46	1.537843137254902	532.8941242203751	839.5783900992991	0.0	583.3726711161086	846.83754288233	0.0	618.5688456248587	1065.7915540202641	0.0	584.2974065520298	1254.4686844013893	0.0	609.84681011108	1355.1819402048782	0.0	625.3277667708097	1352.4786677691218	0.0	560.7265555674015	1292.1524877533004	0.0	485.4755511898943	849.9220649730589	0.0	495.42128492458994	1028.2753385796032	0.0	512.8196479444719	1175.728879681821	0.0	506.5593578191481	1256.5396199113002	0.0	488.21017315455566	1284.0553971845857	0.0	504.2395724402973	1291.5318060747868	0.0	519.6034369337086	554.7770146701743	0.0	506.1751759558923	444.06825156674904	0.0	516.3478710340596	511.0883667425435	0.0	617.2276701594894	585.7545139325426	0.0	672.6329775850289	726.0146656600326	0.0	703.3737762153936	823.3296106275272	0.0	429.7327011474432	593.5238205578661	0.0	373.6787367583651	715.4107489957695	0.0	350.8074089393888	830.11588919384	0.0
47	1.5712745098039216	532.6294074107007	837.7042505756405	0.0	582.5243602999425	842.8251408049983	0.0	619.2585709916194	1057.0271085200334	0.0	584.6497670812158	1242.8824034442764	0.0	611.8168526946378	1342.9141598866797	0.0	628.4926334905723	1339.7152883880506	0.0	561.0346900765819	1281.5015355766457	0.0	485.380129198626	847.3465579611562	0.0	495.7797861131255	1031.1881584051853	0.0	515.165725380433	1213.4861605499696	0.0	509.20246821865754	1286.0297624195016	0.0	489.39474645002133	1304.7998357689949	0.0	507.3941518416556	1293.591402755227	0.0	518.458185098631	555.8479530809032	0.0	506.25262157622456	444.79817323679106	0.0	515.4958025110972	511.4704892559134	0.0	615.8764400426461	584.3160553839753	0.0	671.9479334426624	723.9349800080275	0.0	703.4085089310659	822.1436062320416	0.0	428.47315215323994	593.7231807223501	0.0	373.7540215646205	714.6188696589641	0.0	350.8058965322381	828.277944940696	0.0
